<?xml version="1.0" encoding="UTF-8"?>
<svg id="Layer_1" xmlns="http://www.w3.org/2000/svg" version="1.1" viewBox="0 0 512 512">
  <!-- Generator: Adobe Illustrator 30.1.0, SVG Export Plug-In . SVG Version: 2.1.1 Build 136)  -->
  <defs>
    <style>
      .st0 {
        stroke: #d60000;
        stroke-width: 8px;
      }

      .st0, .st1 {
        fill: none;
        stroke-miterlimit: 10;
      }

      .st2 {
        fill: #0000b3;
      }

      .st1 {
        stroke: #e40000;
        stroke-width: 2px;
      }
    </style>
  </defs>
  <g>
    <path class="st2" d="M108.59,282.87l-17.44-36.75h10.91l5.37,11.26c.5.97,1.01,2.03,1.52,3.18.5,1.15,1.01,2.44,1.52,3.88.54-1.36,1.08-2.56,1.6-3.59.52-1.03,1.04-2.03,1.55-3l6.59-12.89,6.83,12.89c.47.86.96,1.81,1.49,2.86.52,1.05,1.04,2.29,1.55,3.73.5-1.55,1-2.88,1.49-3.97.49-1.09.96-2.12,1.43-3.09l5.37-11.26h10.44l-17.44,36.75-7.99-13.47c-.62-1.01-1.21-2.04-1.75-3.09-.54-1.05-1.09-2.16-1.63-3.33-.51,1.17-1.04,2.28-1.6,3.33-.56,1.05-1.16,2.08-1.78,3.09l-7.99,13.47Z"/>
    <path class="st2" d="M157.18,281.12v-56h10.15v23.62c1.24-1.24,2.67-2.19,4.29-2.83,1.61-.64,3.33-.96,5.16-.96,2.49,0,4.81.59,6.97,1.78,2.16,1.19,3.91,2.92,5.25,5.19s2.01,5.03,2.01,8.25v20.94h-10.15v-19.6c0-1.94-.58-3.68-1.75-5.19-1.17-1.52-2.84-2.28-5.02-2.28-1.75,0-3.32.59-4.7,1.78-1.38,1.19-2.07,3.04-2.07,5.57v19.72h-10.15Z"/>
    <path class="st2" d="M207.41,241.04c-1.52,0-2.8-.52-3.85-1.57s-1.58-2.33-1.58-3.85.52-2.85,1.58-3.88c1.05-1.03,2.33-1.55,3.85-1.55s2.85.52,3.88,1.55c1.03,1.03,1.55,2.32,1.55,3.88s-.52,2.8-1.55,3.85c-1.03,1.05-2.32,1.57-3.88,1.57ZM202.33,281.12v-35h10.15v35h-10.15Z"/>
    <path class="st2" d="M228.58,281.12v-26.95h-6.53v-8.05h6.71v-11.67h9.8v11.67h6.94v8.05h-6.77v26.95h-10.15Z"/>
    <path class="st2" d="M271.34,282.28c-3.93,0-7.39-.82-10.38-2.45-3-1.63-5.33-3.88-7-6.74-1.67-2.86-2.51-6.13-2.51-9.83s.82-6.68,2.45-9.42c1.63-2.74,3.84-4.91,6.62-6.5,2.78-1.59,5.86-2.39,9.25-2.39s6.55.79,9.27,2.36c2.72,1.58,4.87,3.72,6.45,6.45,1.58,2.72,2.36,5.81,2.36,9.28v3.56h-21.35c-.97,0-1.91-.06-2.8-.17-.89-.12-1.79-.25-2.68-.41.47,2.33,1.62,4.23,3.47,5.69,1.85,1.46,4.21,2.19,7.09,2.19,2.22,0,4.21-.45,5.98-1.34,1.77-.89,3.22-2,4.35-3.33l2.22,9.1c-1.75,1.32-3.72,2.31-5.92,2.97-2.2.66-4.48.99-6.85.99ZM260.78,259.88c1.94-.43,3.85-.64,5.72-.64h6.18c1.09,0,2.12.04,3.09.12.97.08,1.89.21,2.74.41-.58-2.1-1.64-3.75-3.18-4.96-1.54-1.21-3.43-1.81-5.69-1.81-2.14,0-4,.61-5.57,1.84-1.58,1.22-2.67,2.91-3.3,5.05Z"/>
    <path class="st2" d="M340.7,282.87l-31.5-31.44v29.69h-9.8v-54.25l31.5,31.38v-29.63h9.8v54.25Z"/>
    <path class="st2" d="M372.49,282.28c-3.93,0-7.39-.82-10.38-2.45-3-1.63-5.33-3.88-7-6.74-1.67-2.86-2.51-6.13-2.51-9.83s.82-6.68,2.45-9.42c1.63-2.74,3.84-4.91,6.62-6.5,2.78-1.59,5.86-2.39,9.25-2.39s6.55.79,9.27,2.36c2.72,1.58,4.87,3.72,6.45,6.45,1.58,2.72,2.36,5.81,2.36,9.28v3.56h-21.35c-.97,0-1.91-.06-2.8-.17-.89-.12-1.79-.25-2.68-.41.47,2.33,1.62,4.23,3.47,5.69,1.85,1.46,4.21,2.19,7.09,2.19,2.22,0,4.21-.45,5.98-1.34,1.77-.89,3.22-2,4.35-3.33l2.22,9.1c-1.75,1.32-3.72,2.31-5.92,2.97-2.2.66-4.48.99-6.85.99ZM361.93,259.88c1.94-.43,3.85-.64,5.72-.64h6.18c1.09,0,2.12.04,3.09.12.97.08,1.89.21,2.74.41-.58-2.1-1.64-3.75-3.18-4.96-1.54-1.21-3.43-1.81-5.69-1.81-2.14,0-4,.61-5.57,1.84-1.58,1.22-2.67,2.91-3.3,5.05Z"/>
    <path class="st2" d="M402.88,281.12v-26.95h-6.53v-8.05h6.71v-11.67h9.8v11.67h6.94v8.05h-6.77v26.95h-10.15Z"/>
  </g>
  <path class="st1" d="M256,146.73"/>
  <path class="st0" d="M72.87,193.28c52.73,7.77,114.34,13.42,183.13,13.42s130.4-5.65,183.13-13.42"/>
  <path class="st0" d="M439.13,318.72c-52.73-7.77-114.34-13.42-183.13-13.42s-130.4,5.65-183.13,13.42"/>
</svg>