<svg width="114" height="42" viewBox="0 0 114 42" fill="none" xmlns="http://www.w3.org/2000/svg">
<path d="M14.0167 27L10.9333 16.5H14.1333L15.9833 23.0667H16.0167L17.7333 16.5H20.1L21.9333 23.0667H21.9667L23.7333 16.5H26.1667L23.0833 27H20.1333L18.5 21.2H18.4667L16.9667 27H14.0167ZM27.931 27V12.3333H31.0643V17.85H31.1977C32.081 16.8333 33.1643 16.2333 34.3643 16.2333C36.0477 16.2333 37.1477 17.4 37.1477 19.5V27H34.0143V20.5333C34.0143 19.0333 33.5643 18.3667 32.631 18.3667C32.0477 18.3667 31.581 18.65 31.0643 19.2833V27H27.931ZM39.7708 27V16.5H42.9042V27H39.7708ZM39.7708 15.0833V12.4167H42.9042V15.0833H39.7708ZM50.6755 27.0667C47.9589 27.0667 46.8589 26.2333 46.8589 24.0667V18.4667H44.9922V16.5H46.8589V14H49.9922V16.5H52.7422V18.4667H49.9922V23.2167C49.9922 24.3333 50.6089 24.65 51.6755 24.65C52.1422 24.65 52.4089 24.6 52.7422 24.55V26.8833C52.3089 26.9667 51.7089 27.0667 50.6755 27.0667ZM59.5339 27.2667C56.7505 27.2667 54.4505 25.7167 54.4505 21.8167C54.4505 18.0333 56.5005 16.2333 59.5505 16.2333C61.7005 16.2333 64.1172 17.6167 64.1172 21.4167V22H57.6505C57.7172 24.1833 58.4005 25.25 59.5505 25.25C60.4505 25.25 61.2672 24.6 61.4339 23.3333H64.3005C63.9839 26.25 61.5339 27.2667 59.5339 27.2667ZM57.7339 20.4167H60.9505C60.9505 18.7833 60.2005 18.1667 59.4172 18.1667C58.6005 18.1667 57.9505 18.8167 57.7339 20.4167ZM66.7604 27V13.1667H70.7604L75.5604 22.2H75.5938V13.1667H78.1604V27H74.7104L69.3604 16.9333H69.3271V27H66.7604ZM85.7526 27.2667C82.9693 27.2667 80.6693 25.7167 80.6693 21.8167C80.6693 18.0333 82.7193 16.2333 85.7693 16.2333C87.9193 16.2333 90.3359 17.6167 90.3359 21.4167V22H83.8693C83.9359 24.1833 84.6193 25.25 85.7693 25.25C86.6693 25.25 87.4859 24.6 87.6526 23.3333H90.5193C90.2026 26.25 87.7526 27.2667 85.7526 27.2667ZM83.9526 20.4167H87.1693C87.1693 18.7833 86.4193 18.1667 85.6359 18.1667C84.8193 18.1667 84.1693 18.8167 83.9526 20.4167ZM97.6247 27.0667C94.9081 27.0667 93.8081 26.2333 93.8081 24.0667V18.4667H91.9414V16.5H93.8081V14H96.9414V16.5H99.6914V18.4667H96.9414V23.2167C96.9414 24.3333 97.5581 24.65 98.6247 24.65C99.0914 24.65 99.3581 24.6 99.6914 24.55V26.8833C99.2581 26.9667 98.6581 27.0667 97.6247 27.0667Z" fill="#0000B3"/>
<path d="M1.81006 2.56006C18.0801 4.56006 36.5501 5.92006 56.8401 5.90006C76.8301 5.88006 95.0401 4.53006 111.12 2.56006" stroke="#D60000" stroke-width="2.5" stroke-miterlimit="10"/>
<path d="M111.11 38.65C94.84 36.65 76.3701 35.29 56.0801 35.31C36.0901 35.33 17.88 36.68 1.80005 38.65" stroke="#D60000" stroke-width="2.5" stroke-miterlimit="10"/>
</svg>
