<svg width="115" height="45" viewBox="0 0 115 45" fill="none" xmlns="http://www.w3.org/2000/svg">
<path d="M15.3799 29.0301L10.3999 18.5301H13.5199L15.0499 21.7501C15.1899 22.0301 15.3399 22.3301 15.4799 22.6601C15.6199 22.9901 15.7699 23.3601 15.9099 23.7701C16.0699 23.3801 16.2199 23.0401 16.3699 22.7401C16.5199 22.4501 16.6699 22.1601 16.8099 21.8801L18.6899 18.2001L20.6399 21.8801C20.7699 22.1301 20.9099 22.4001 21.0599 22.7001C21.2099 23.0001 21.3599 23.3601 21.4999 23.7701C21.6399 23.3301 21.7899 22.9501 21.9199 22.6401C22.0599 22.3301 22.1899 22.0301 22.3299 21.7601L23.8599 18.5401H26.8399L21.8599 29.0401L19.5799 25.1901C19.3999 24.9001 19.2399 24.6101 19.0799 24.3101C18.9199 24.0101 18.7699 23.6901 18.6099 23.3601C18.4699 23.6901 18.3099 24.0101 18.1499 24.3101C17.9899 24.6101 17.8199 24.9001 17.6399 25.1901L15.3799 29.0301Z" fill="#0000B3"/>
<path d="M29.27 28.53V12.53H32.17V19.28C32.53 18.92 32.93 18.66 33.4 18.47C33.86 18.29 34.35 18.2 34.88 18.2C35.59 18.2 36.26 18.37 36.87 18.71C37.49 19.05 37.99 19.54 38.37 20.19C38.75 20.84 38.94 21.63 38.94 22.55V28.53H36.04V22.93C36.04 22.37 35.87 21.88 35.54 21.45C35.21 21.02 34.73 20.8 34.11 20.8C33.61 20.8 33.16 20.97 32.77 21.31C32.38 21.65 32.18 22.18 32.18 22.9V28.53H29.27Z" fill="#0000B3"/>
<path d="M43.6198 17.07C43.1898 17.07 42.8198 16.92 42.5198 16.62C42.2198 16.32 42.0698 15.95 42.0698 15.52C42.0698 15.08 42.2198 14.71 42.5198 14.41C42.8198 14.12 43.1898 13.97 43.6198 13.97C44.0598 13.97 44.4298 14.12 44.7298 14.41C45.0198 14.7 45.1698 15.07 45.1698 15.52C45.1698 15.95 45.0198 16.32 44.7298 16.62C44.4298 16.92 44.0598 17.07 43.6198 17.07ZM42.1698 28.53V18.53H45.0698V28.53H42.1698Z" fill="#0000B3"/>
<path d="M49.6698 28.5301V20.8301H47.7998V18.5301H49.7198V15.2001H52.5198V18.5301H54.4998V20.8301H52.5698V28.5301H49.6698Z" fill="#0000B3"/>
<path d="M61.8799 28.8601C60.7599 28.8601 59.7699 28.6301 58.9099 28.1601C58.0499 27.6901 57.3899 27.0501 56.9099 26.2301C56.4299 25.4101 56.1899 24.4801 56.1899 23.4201C56.1899 22.4101 56.4199 21.5101 56.8899 20.7301C57.3599 19.9501 57.9899 19.3301 58.7799 18.8701C59.5699 18.4101 60.4499 18.1901 61.4199 18.1901C62.4099 18.1901 63.2899 18.4101 64.0699 18.8701C64.8499 19.3201 65.4599 19.9301 65.9099 20.7101C66.3599 21.4901 66.5799 22.3701 66.5799 23.3601V24.3801H60.4799C60.1999 24.3801 59.9399 24.3601 59.6799 24.3301C59.4199 24.3001 59.1699 24.2601 58.9099 24.2101C59.0399 24.8801 59.3699 25.4201 59.8999 25.8301C60.4299 26.2501 61.0999 26.4501 61.9299 26.4501C62.5599 26.4501 63.1299 26.3201 63.6399 26.0701C64.1399 25.8201 64.5599 25.5001 64.8799 25.1201L65.5099 27.7201C65.0099 28.1001 64.4499 28.3801 63.8199 28.5701C63.2099 28.7601 62.5599 28.8601 61.8799 28.8601ZM58.8699 22.4601C59.4299 22.3401 59.9699 22.2801 60.4999 22.2801H62.2699C62.5799 22.2801 62.8799 22.2901 63.1499 22.3101C63.4199 22.3301 63.6899 22.3701 63.9299 22.4301C63.7599 21.8301 63.4599 21.3601 63.0199 21.0101C62.5799 20.6701 62.0399 20.4901 61.3999 20.4901C60.7899 20.4901 60.2599 20.6601 59.8099 21.0101C59.3599 21.3701 59.0399 21.8501 58.8699 22.4601Z" fill="#0000B3"/>
<path d="M81.6999 29.03L72.6999 20.05V28.53H69.8999V13.03L78.8999 22V13.53H81.6999V29.03Z" fill="#0000B3"/>
<path d="M90.7798 28.8601C89.6598 28.8601 88.6698 28.6301 87.8098 28.1601C86.9498 27.6901 86.2898 27.0501 85.8098 26.2301C85.3298 25.4101 85.0898 24.4801 85.0898 23.4201C85.0898 22.4101 85.3198 21.5101 85.7898 20.7301C86.2598 19.9501 86.8898 19.3301 87.6798 18.8701C88.4698 18.4101 89.3498 18.1901 90.3198 18.1901C91.3098 18.1901 92.1898 18.4101 92.9698 18.8701C93.7498 19.3201 94.3598 19.9301 94.8098 20.7101C95.2598 21.4901 95.4799 22.3701 95.4799 23.3601V24.3801H89.3798C89.0998 24.3801 88.8398 24.3601 88.5798 24.3301C88.3298 24.3001 88.0698 24.2601 87.8098 24.2101C87.9398 24.8801 88.2699 25.4201 88.7999 25.8301C89.3299 26.2501 89.9998 26.4501 90.8198 26.4501C91.4498 26.4501 92.0198 26.3201 92.5298 26.0701C93.0298 25.8201 93.4498 25.5001 93.7698 25.1201L94.3998 27.7201C93.8998 28.1001 93.3398 28.3801 92.7098 28.5701C92.1098 28.7601 91.4598 28.8601 90.7798 28.8601ZM87.7698 22.4601C88.3298 22.3401 88.8698 22.2801 89.3998 22.2801H91.1698C91.4798 22.2801 91.7799 22.2901 92.0499 22.3101C92.3199 22.3301 92.5898 22.3701 92.8298 22.4301C92.6598 21.8301 92.3598 21.3601 91.9198 21.0101C91.4798 20.6701 90.9399 20.4901 90.2999 20.4901C89.6899 20.4901 89.1598 20.6601 88.7098 21.0101C88.2598 21.3701 87.9398 21.8501 87.7698 22.4601Z" fill="#0000B3"/>
<path d="M99.4699 28.5301V20.8301H97.5999V18.5301H99.5199V15.2001H102.32V18.5301H104.3V20.8301H102.37V28.5301H99.4699Z" fill="#0000B3"/>
<path d="M1.01001 3.16003C17.27 5.55003 36.27 7.30003 57.49 7.30003C78.71 7.30003 97.71 5.56003 113.97 3.16003" stroke="#D60000" stroke-width="2.5" stroke-miterlimit="10"/>
<path d="M113.97 41.8501C97.71 39.4501 78.71 37.7101 57.49 37.7101C36.27 37.7101 17.27 39.4501 1.01001 41.8501" stroke="#D60000" stroke-width="2.5" stroke-miterlimit="10"/>
</svg>
